#format: frame checksums
#version: 1
#hash: MD5
#tb 0: 1/25
#stream#, dts,        pts, duration,     size, hash
0,          0,          0,        1,    89732, 698174b0d0d68e98774363ca7926f6e1
0,          1,          1,        1,    89652, f0789b7c32ef44207dfc5a454bb5ccee
0,          2,          2,        1,    90868, 6df1dcb1957efca736e88adfbad8557b
0,          3,          3,        1,    89520, 9cee942e7f03a97cd2cdf8cea429fb31
0,          4,          4,        1,    88508, 798f4e8c00f4d949882cdc3f89be0bf6
0,          5,          5,        1,    90140, 70fc5f4f240b0ca30332b0f37632d1cb
0,          6,          6,        1,    90176, 1c2747fc56d5eb70ff8f4f361cb70610
0,          7,          7,        1,    89392, bd8764124753f784d5984cd829c8ca90
0,          8,          8,        1,    89848, 1dc30ed23a8634f6b2661ac8583fe8cc
0,          9,          9,        1,    90356, 0910ae7c3a6924031453f458009354fa
0,         10,         10,        1,    89984, 61da06bf1ed667b54ee749c69ab031eb
0,         11,         11,        1,    90012, 11d05491f86014f19b34cab3111a95d2
0,         12,         12,        1,    89072, 4598f16727472daa1710c39b4840efdc
0,         13,         13,        1,    89776, ed6c0da32acf621e9f79b76a3afaa280
0,         14,         14,        1,    90680, 05f3a9232bc14ca8721ef04243177a20
0,         15,         15,        1,    90852, e4deff113ea503656efecb227f6b702a
0,         16,         16,        1,    89844, 5ee70abd6f1d2e5c55117b28840327e6
0,         17,         17,        1,    89852, 6721997ae0563009adbdeed31f437ce4
0,         18,         18,        1,    89144, 8a40f0af74afb4ff05e6242a41c7789f
0,         19,         19,        1,    88880, 8824c3526629a30fbf9a53abc448844c
0,         20,         20,        1,    88344, 18a656127a16bb50113bb2e98b11a26d
0,         21,         21,        1,    88464, 19a3b9510e6347a7782f695b48736991
0,         22,         22,        1,    88588, e3d22d15b4812c26214db546ce17c7dd
0,         23,         23,        1,    89720, afe800faa0188dff0899cd83af6301d6
0,         24,         24,        1,    90216, a9d9ece70c978c595e1d724a0f644f56
0,         25,         25,        1,    89456, 9bf3e8f87f072d55095acc9351a09f45
0,         26,         26,        1,    88992, 40d1b1858f1ba0bebd9eb9f5263cda9d
0,         27,         27,        1,    88632, 1df39644ac99bccab4c6bd72498284c4
0,         28,         28,        1,    87048, 9983cd95307c1bab653170ba2aecdc55
0,         29,         29,        1,    87120, 006b48403af94a0bc5121900b48af9c1
0,         30,         30,        1,    88044, 652d17c8805de56cd83824d99888822e
0,         31,         31,        1,    89016, 652a971973d088b5098a06b216137151
0,         32,         32,        1,    89324, 2775a087358ead0281ce188f4006050d
0,         33,         33,        1,    90328, 564e119bdf5f3c780c0613990ca487db
0,         34,         34,        1,    89684, 1f5fb4ec22234aee771791b71881b630
0,         35,         35,        1,    89216, dde7a003cfe5b47f9be407f28dcdfb3f
0,         36,         36,        1,    88644, 1fed2d2f72ec9488181a06606aaf4e12
0,         37,         37,        1,    89000, 8f916bee0ad8efe8d3572e4af4bf4b8e
0,         38,         38,        1,    88628, d802fb5634d3acd72a96bd99c22dd566
0,         39,         39,        1,    88448, a4d438df349f1f2ff1620fb965d08513
0,         40,         40,        1,    87332, 18a8527dcfc5c1fa8ae7aa8a83781d2d
0,         41,         41,        1,    88856, 63179f19a5d60d3ea9fa14c00ca5c493
0,         42,         42,        1,    88556, 92b568c24ed53e823b54fa6c064d16ac
0,         43,         43,        1,    88380, c204b982e3ab7fc1aa6b1b132c4ae462
0,         44,         44,        1,    87888, 45f1cd55d454a0b611b047b6e5172b30
0,         45,         45,        1,    86876, c668ac58b31feb51902b78fdfcdc1064
0,         46,         46,        1,    86272, 24a94950de7065cb236e52502c9c8e67
0,         47,         47,        1,    86388, 51dad738cd8896616694a4fb52b47fbd
0,         48,         48,        1,    86188, dc6709cd2722eb8dd927f405c6a30915
0,         49,         49,        1,    85244, 68f40045a250ab0799a7325aa16ec80c
